<svg width="80" height="80" viewBox="0 0 80 80" fill="none" xmlns="http://www.w3.org/2000/svg">
<g clip-path="url(#clip0_156_14)">
<path fill-rule="evenodd" clip-rule="evenodd" d="M39.9997 20C39.9997 26.3118 34.883 31.4286 28.5711 31.4286C22.2593 31.4286 17.1426 26.3118 17.1426 20C17.1426 13.6882 22.2593 8.57143 28.5711 8.57143C34.883 8.57143 39.9997 13.6882 39.9997 20ZM3.56557 68.0143C3.56557 54.5087 14.7617 43.5603 28.5729 43.5603C42.384 43.5603 53.5802 54.5087 53.5802 68.0143V70.7314H3.56557V68.0143Z" fill="#FDDC5C"/>
<path fill-rule="evenodd" clip-rule="evenodd" d="M47.2277 34.4063C50.3081 30.4227 52.141 25.4254 52.141 20C52.141 14.5746 50.3081 9.57731 47.2277 5.59365C48.5581 5.20718 49.9647 5 51.4198 5C59.7043 5 66.4197 11.7157 66.4197 20C66.4197 28.2843 59.7043 35 51.4198 35C49.9647 35 48.5581 34.7928 47.2277 34.4063ZM65.1877 74.3029C65.5346 73.1737 65.7214 71.9743 65.7214 70.7314V68.0143C65.7214 56.6796 60.5426 46.6781 52.4819 40.0078C67.7043 40.5541 80.0003 52.8129 80.0003 68.0143V70.7314C80.0003 72.704 78.4014 74.3029 76.4289 74.3029H65.1877ZM49.991 67.16C49.5318 56.0914 40.1898 47.1317 28.5729 47.1317C16.9559 47.1317 7.61395 56.0914 7.15469 67.16H49.991ZM-0.00585938 68.0143C-0.00585938 52.4614 12.865 39.9889 28.5729 39.9889C44.2807 39.9889 57.1517 52.4614 57.1517 68.0143V70.7314C57.1517 72.704 55.5526 74.3029 53.5802 74.3029H3.56557C1.59312 74.3029 -0.00585938 72.704 -0.00585938 70.7314V68.0143ZM20.714 20C20.714 15.6606 24.2318 12.1429 28.5711 12.1429C32.9105 12.1429 36.4283 15.6606 36.4283 20C36.4283 24.3394 32.9105 27.8571 28.5711 27.8571C24.2318 27.8571 20.714 24.3394 20.714 20ZM28.5711 5C20.2869 5 13.5711 11.7157 13.5711 20C13.5711 28.2843 20.2869 35 28.5711 35C36.8554 35 43.5711 28.2843 43.5711 20C43.5711 11.7157 36.8554 5 28.5711 5Z" fill="#0C098C"/>
</g>
<defs>
<clipPath id="clip0_156_14">
<rect width="80" height="80" fill="white"/>
</clipPath>
</defs>
</svg>
