<svg version="1.1" id="Layer_1" xmlns="http://www.w3.org/2000/svg" xmlns:xlink="http://www.w3.org/1999/xlink" x="0px" y="0px"
	 width="100%" viewBox="0 0 1019 387" enable-background="new 0 0 1019 387" xml:space="preserve">
<path fill="#FEFEFF" opacity="1.000000" stroke="none" 
	d="
M768.000000,388.000000 
	C512.000000,388.000000 256.500000,388.000000 1.000000,388.000000 
	C1.000000,259.000000 1.000000,130.000000 1.000000,1.000000 
	C340.666656,1.000000 680.333313,1.000000 1020.000000,1.000000 
	C1020.000000,130.000000 1020.000000,259.000000 1020.000000,388.000000 
	C936.166687,388.000000 852.333313,388.000000 768.000000,388.000000 
M934.164429,349.701660 
	C934.764343,349.857147 935.364197,350.012604 936.200562,350.544006 
	C936.444214,350.746033 936.722534,350.823639 937.537109,351.226929 
	C938.380371,351.486450 939.223572,351.745941 940.444519,352.395447 
	C940.956787,352.547058 941.469116,352.698700 942.424255,353.360962 
	C943.264404,353.641388 944.104553,353.921844 945.327515,354.619507 
	C945.876282,354.713074 946.425110,354.806641 947.673645,355.279633 
	C951.784241,355.486450 955.894775,355.693268 960.633179,355.985840 
	C960.977661,355.761536 961.322144,355.537231 962.077087,355.420502 
	C962.372620,355.401123 962.626953,355.288696 963.065552,355.258881 
	C963.393127,355.313599 963.618469,355.198212 964.433411,354.888275 
	C965.617065,354.229797 966.800781,353.571320 968.651428,352.811768 
	C976.200195,347.917297 980.000122,340.826172 980.580322,331.987854 
	C980.775757,329.010925 980.375671,325.999878 980.375183,323.004425 
	C980.362732,245.514343 980.417358,168.024170 980.274048,90.534355 
	C980.262512,84.296432 979.365845,77.966194 978.092041,71.842888 
	C974.799377,56.015446 966.115173,49.161213 950.109924,49.158360 
	C896.617004,49.148834 843.124146,49.157246 789.631226,49.154732 
	C545.662476,49.143269 301.693787,49.128769 57.725044,49.121906 
	C41.863567,49.121460 31.134853,60.668869 31.218826,76.505409 
	C31.448551,119.829849 31.457245,163.156876 31.254723,206.481476 
	C31.176489,223.217529 41.582264,234.260223 58.304115,234.225327 
	C83.467323,234.172791 108.630646,234.164719 133.793915,234.153534 
	C135.410355,234.152817 137.026840,234.287430 138.770599,234.364746 
	C138.770599,250.307983 138.770599,265.867126 138.770599,281.698700 
	C127.938118,281.698700 117.448608,281.662994 106.959427,281.706879 
	C90.307709,281.776550 73.656204,281.899384 56.230068,281.913361 
	C54.495556,282.273346 52.761047,282.633331 50.269955,282.935516 
	C41.315487,285.752411 35.237885,291.688568 33.338696,300.792419 
	C31.416683,310.005676 32.814087,318.739014 40.998135,325.001953 
	C40.998135,325.001953 40.942322,325.031586 41.185127,325.670746 
	C47.576767,331.569061 55.381504,332.104553 63.582088,332.104004 
	C253.078430,332.091370 442.574799,332.203278 632.070984,332.057098 
	C636.950073,332.053345 642.352661,330.307312 646.598022,327.817108 
	C656.057495,322.268402 665.413574,316.323853 673.943237,309.461029 
	C686.739441,299.165344 698.790344,287.943359 711.044312,277.043335 
	C711.044312,277.043335 711.117615,277.156433 711.749268,276.938263 
	C714.551514,273.661652 717.353699,270.385071 720.064392,267.065765 
	C720.064392,267.065765 720.093628,267.162445 720.620605,267.002441 
	C720.797485,266.694366 720.974304,266.386261 721.056763,266.056824 
	C721.056763,266.056824 721.101318,266.142761 721.754944,265.966217 
	C723.230042,264.020905 724.705200,262.075592 726.055359,260.039886 
	C726.055359,260.039886 726.140808,260.168243 726.766052,259.923309 
	C728.229187,257.983429 729.692322,256.043518 731.050049,254.050293 
	C731.050049,254.050293 731.109863,254.152161 731.764160,253.969574 
	C737.230530,246.017441 742.696838,238.065308 748.043945,230.051712 
	C748.043945,230.051712 748.124634,230.158920 748.760986,229.911041 
	C754.324951,219.890610 759.888916,209.870178 765.055664,200.565033 
	C772.536194,212.232529 780.204834,224.193481 787.964417,236.040802 
	C787.964417,236.040802 787.839355,236.115280 787.984741,236.792206 
	C794.130737,244.623215 799.938904,252.749832 806.484009,260.231689 
	C829.101929,286.086670 855.539307,307.450409 885.232849,324.589417 
	C899.422241,332.779480 914.399353,339.605042 929.162109,347.255310 
	C929.162109,347.255310 929.410583,347.219727 929.866577,347.782928 
	C931.199219,348.256348 932.531860,348.729797 933.959961,349.056427 
	C933.959961,349.056427 933.826050,349.169250 934.164429,349.701660 
z"/>
<path fill="#0334A6" opacity="1.000000" stroke="none" 
	d="
M941.981384,352.850342 
	C941.469116,352.698700 940.956787,352.547058 940.346619,352.211670 
	C940.248718,352.027863 940.313477,351.855255 940.444641,351.757263 
	C940.372009,351.443634 940.168213,351.227936 939.652771,350.967163 
	C938.927673,350.848694 938.514221,350.775391 937.994141,350.591309 
	C937.589294,350.253571 937.352356,350.297150 937.111938,350.627533 
	C937.047180,350.643829 937.035522,350.776794 937.035522,350.776794 
	C936.722534,350.823639 936.444214,350.746033 935.934204,350.060089 
	C935.053894,349.440521 934.440002,349.304901 933.826050,349.169250 
	C933.826050,349.169250 933.959961,349.056427 933.883057,348.723450 
	C932.340942,348.000214 930.875793,347.609985 929.410583,347.219727 
	C929.410583,347.219727 929.162109,347.255310 929.040771,346.802795 
	C927.907166,345.558655 926.989197,344.585358 925.868042,344.003235 
	C913.377319,337.517578 900.538330,331.633057 888.412415,324.529633 
	C867.981140,312.560974 848.821289,298.644012 831.315979,282.678925 
	C816.951172,269.578003 803.793213,255.270721 792.212585,239.576004 
	C791.147583,238.132660 789.315308,237.255402 787.839355,236.115280 
	C787.839355,236.115280 787.964417,236.040802 787.964722,235.703674 
	C787.422424,233.867859 787.096497,232.241760 786.302307,230.890854 
	C780.622314,221.228897 774.871887,211.607864 769.074707,202.015640 
	C768.213318,200.590393 766.988281,199.384903 765.931458,198.077759 
	C764.505188,199.305496 762.646912,200.275955 761.733887,201.809296 
	C759.031677,206.346863 756.545837,211.031860 754.272522,215.800842 
	C752.034119,220.496719 750.159119,225.365829 748.124634,230.158936 
	C748.124634,230.158920 748.043945,230.051712 747.751831,230.096069 
	C743.237854,235.690247 738.902832,241.159210 734.850891,246.830444 
	C733.275024,249.036041 732.337891,251.698044 731.109863,254.152161 
	C731.109863,254.152161 731.050049,254.050293 730.748169,254.095184 
	C729.011108,256.149445 727.575928,258.158813 726.140747,260.168213 
	C726.140808,260.168243 726.055359,260.039886 725.767761,260.091370 
	C724.020508,262.142822 722.560913,264.142792 721.101318,266.142761 
	C721.101318,266.142761 721.056763,266.056824 720.845825,266.155121 
	C720.454407,266.556427 720.273987,266.859436 720.093628,267.162445 
	C720.093628,267.162445 720.064392,267.065765 719.752930,267.086365 
	C715.814575,269.750885 711.772095,272.050507 711.117615,277.156433 
	C711.117615,277.156433 711.044312,277.043335 710.740723,277.065216 
	C709.710693,277.462402 708.869446,277.707886 708.275146,278.232788 
	C701.291626,284.400879 694.735413,291.132111 687.304138,296.696655 
	C673.648376,306.922180 659.663208,316.741364 645.408691,326.111206 
	C641.652588,328.580170 636.408691,329.867737 631.846252,329.872070 
	C441.361145,330.053436 250.875793,330.061096 60.390759,329.850677 
	C55.006908,329.844727 49.626537,327.233765 44.243099,325.843079 
	C43.146160,325.559692 42.042747,325.301422 40.942322,325.031616 
	C40.942322,325.031586 40.998135,325.001953 41.002335,324.655396 
	C40.442532,323.153015 39.783207,322.033112 39.331993,320.834808 
	C37.839561,316.871368 35.383011,312.933685 35.172604,308.888550 
	C34.562180,297.153015 39.970779,288.646088 51.425556,283.982605 
	C61.483021,283.671265 71.081497,283.154755 80.683693,283.072662 
	C98.297127,282.922058 115.912827,283.047729 133.527390,282.995239 
	C135.292770,282.989990 137.056870,282.551788 139.217285,282.160034 
	C140.057175,280.175934 140.867844,278.349976 140.886169,276.516144 
	C141.007751,264.354309 140.751907,252.185745 141.048874,240.029877 
	C141.211761,233.362595 140.456161,232.086395 133.874268,232.085571 
	C107.881943,232.082352 81.888741,231.964645 55.897694,232.148270 
	C43.919312,232.232880 33.818008,220.391846 33.848766,210.360229 
	C33.990284,164.207626 33.899315,118.054321 33.967419,71.901382 
	C33.970509,69.807014 34.370056,67.576302 35.158146,65.642731 
	C39.544590,54.880669 48.156113,50.919411 59.235165,50.920094 
	C303.329773,50.935085 547.424377,50.931961 791.518982,50.931309 
	C845.003174,50.931164 898.487671,50.837196 951.971313,51.000557 
	C962.754333,51.033493 971.002136,56.294266 974.324524,65.920944 
	C976.454712,72.093285 977.908875,78.847931 977.928101,85.346703 
	C978.164795,165.322388 977.960144,245.299423 978.231445,325.274872 
	C978.265503,335.326080 976.160767,343.885803 968.621643,351.017639 
	C962.872192,354.852814 956.709412,353.955627 950.697632,354.063232 
	C949.451782,354.085510 948.214905,354.608185 946.973877,354.900208 
	C946.425110,354.806641 945.876282,354.713074 945.125488,354.076111 
	C943.942749,353.305267 942.962036,353.077789 941.981384,352.850342 
M502.519257,199.163223 
	C502.519257,199.163223 502.838623,199.545090 502.838623,199.545090 
	C502.838623,199.545090 503.335175,199.502655 503.393829,199.593918 
	C503.393829,199.593918 503.477600,199.662888 503.309204,200.329102 
	C503.903473,200.865921 504.497742,201.402756 504.998138,201.979996 
	C504.998138,201.979996 505.075623,201.913162 505.007812,202.688370 
	C506.216827,205.158035 507.425842,207.627701 508.823792,210.704575 
	C508.835205,211.126511 508.846619,211.548431 508.346832,212.622665 
	C508.258179,234.718781 508.137939,256.814941 508.171143,278.910889 
	C508.172882,280.056732 509.484619,281.200623 510.819122,282.809662 
	C511.642731,282.883881 512.466370,283.023041 513.289978,283.022980 
	C550.537476,283.020691 587.784912,283.006134 625.795593,282.990448 
	C629.303345,281.052307 632.963318,279.337494 636.259644,277.089294 
	C638.130127,275.813538 639.404785,273.664093 640.985352,271.989838 
	C640.985352,271.989838 640.911133,271.939056 641.719238,271.998657 
	C643.206970,271.523621 645.005005,271.431671 646.135559,270.515778 
	C661.579041,258.004608 677.101624,245.536407 689.527588,229.837906 
	C692.707336,225.820663 695.083252,221.167267 697.941956,216.947174 
	C697.941956,216.947174 697.792480,216.845093 698.514221,216.889267 
	C699.201416,216.480087 700.148865,216.238312 700.536194,215.636230 
	C705.080994,208.570892 710.253113,201.791931 713.854614,194.265060 
	C719.019348,183.470963 723.196106,172.187469 727.480957,160.992844 
	C734.424255,142.852722 736.718445,123.871620 736.910278,104.585518 
	C736.925598,103.041527 735.864563,101.486839 735.033081,99.898987 
	C735.033081,99.898987 735.084412,99.630638 735.006592,99.128380 
	C734.681519,98.761597 734.356445,98.394814 733.090332,98.006058 
	C686.052551,98.009789 639.014771,98.013519 591.498474,98.332870 
	C591.362976,98.680229 591.227539,99.027588 590.941589,99.456268 
	C590.941589,99.456268 590.770813,99.449539 590.122803,99.290421 
	C589.761414,99.510872 589.400024,99.731316 588.995972,100.894310 
	C588.989807,125.883003 589.075439,150.872192 588.941650,175.860199 
	C588.866028,189.979568 588.429504,204.097000 588.136597,218.085419 
	C588.136597,218.085419 588.264526,218.114746 587.719910,218.212387 
	C587.468140,218.469254 587.216431,218.726105 586.437622,219.428421 
	C586.317017,220.326782 586.196472,221.225128 586.041016,222.039948 
	C586.041016,222.039948 586.127869,222.065430 585.434021,222.097916 
	C583.315979,224.445618 581.197937,226.793335 579.047424,229.051147 
	C579.047424,229.051147 579.136475,229.085953 578.309082,229.021057 
	C575.989563,229.124039 573.145081,228.375916 573.089539,232.115799 
	C573.089539,232.115799 573.191833,232.149353 572.239502,232.040985 
	C570.744385,232.024002 569.218079,231.801178 567.759033,232.022156 
	C554.600525,234.015137 542.345886,220.888916 542.714661,206.930603 
	C543.583130,174.055206 543.047424,141.141022 542.894165,108.243401 
	C542.881287,105.485687 541.472351,102.734474 540.390259,99.861618 
	C540.187073,99.725426 540.067810,99.536331 539.544800,98.579498 
	C538.921631,98.390755 538.298584,98.037437 537.675232,98.036858 
	C504.929657,98.006355 472.184021,97.991432 439.438599,98.063156 
	C438.329468,98.065582 437.222290,98.971588 436.016754,99.911583 
	C435.722015,100.270981 435.427307,100.630379 434.400269,101.335579 
	C433.936737,102.681404 433.069489,104.026917 433.068481,105.373093 
	C433.039856,143.310272 433.098633,181.247543 433.114990,219.081619 
	C433.114990,219.081619 433.211578,219.127502 432.498810,219.110672 
	C429.012512,223.105026 425.526215,227.099365 422.021606,231.017197 
	C422.021606,231.017197 422.094025,231.047943 421.432343,231.063797 
	C421.009979,231.489563 420.587616,231.915314 420.126160,232.208160 
	C420.126160,232.208160 420.260437,232.242264 419.365082,232.081955 
	C418.371521,232.093063 417.354340,231.968124 416.387970,232.135864 
	C403.833740,234.314865 395.774048,230.400284 389.842102,219.280685 
	C389.514923,218.667389 388.621948,218.355927 387.948608,217.552856 
	C387.948608,217.552856 387.934601,217.199310 387.986359,216.295700 
	C387.663269,210.358932 387.079254,204.422989 387.060883,198.485275 
	C386.966003,167.763062 387.039520,137.040329 386.954163,106.318047 
	C386.949249,104.544830 386.062347,102.774063 385.245483,100.429588 
	C385.188232,100.215057 385.130981,100.000519 385.127502,99.280357 
	C385.088959,99.114967 385.050385,98.949577 384.345093,98.293037 
	C383.693939,98.195442 383.042847,98.012772 382.391663,98.012474 
	C353.033020,97.999130 323.674347,97.993736 294.315735,98.033920 
	C293.215759,98.035423 292.116425,98.498199 290.874817,99.137711 
	C290.874817,99.137711 290.886200,99.554192 290.803314,99.821266 
	C290.803314,99.821266 290.535553,99.901901 289.851624,100.215103 
	C289.605774,102.146019 289.147797,104.076691 289.145599,106.007889 
	C289.106506,140.415833 289.238190,174.824738 288.972412,209.230667 
	C288.941254,213.264999 287.289948,217.530487 285.468018,221.235596 
	C283.803040,224.621552 280.888092,227.392822 278.399017,230.514908 
	C278.399017,230.514908 278.267731,230.584015 277.669708,230.316254 
	C277.213348,230.660385 276.756958,231.004501 276.156342,231.149551 
	C276.156342,231.149551 276.251617,231.376160 275.430847,231.199371 
	C270.376862,231.823532 265.327240,232.942017 260.268158,232.986496 
	C238.056808,233.181808 215.842453,233.024155 193.630219,233.161514 
	C192.182724,233.170471 190.743896,234.579300 189.353088,235.724548 
	C189.353088,235.724548 189.108322,236.029541 188.342804,236.131714 
	C188.113586,237.573395 187.702667,239.012756 187.684082,240.457138 
	C187.543060,251.409409 188.103180,262.415070 187.189163,273.298645 
	C186.483887,281.696655 186.812622,283.026520 195.355438,283.026672 
	C281.459473,283.028351 367.563538,283.030792 453.667572,282.994202 
	C455.439362,282.993439 457.210968,282.527100 459.130280,281.724823 
	C459.112152,281.534851 459.094025,281.344849 459.016449,281.077759 
	C459.016449,281.077759 459.098816,281.025970 459.657532,280.406738 
	C459.766968,275.943665 459.901703,271.481049 459.981537,267.017426 
	C460.373230,245.125275 458.625000,223.114075 463.725861,201.199127 
	C463.725861,201.199127 463.950043,201.011368 464.642578,200.931229 
	C465.325256,200.481750 466.084259,200.115570 466.679291,199.570435 
	C477.364716,189.781235 485.139648,188.935806 497.981781,196.136505 
	C498.639221,196.505127 499.529541,196.458328 500.334320,196.675461 
	C500.334320,196.675461 500.407562,196.687042 500.423706,197.171585 
	C500.423706,197.171585 500.828461,197.433975 500.828461,197.433975 
	C500.828461,197.433975 501.265656,197.229309 501.626099,197.394394 
	C501.626099,197.394394 501.816467,197.742126 501.588593,198.139679 
	C501.588593,198.139679 501.890778,198.481689 501.890778,198.481689 
	C501.890778,198.481689 502.322418,198.330185 502.546753,198.457809 
	C502.546753,198.457809 502.666412,198.686462 502.519257,199.163223 
M852.460205,236.539017 
	C852.460205,236.539017 852.560974,236.577377 852.446777,237.149765 
	C852.774353,237.256104 853.101990,237.362442 853.428345,237.563675 
	C853.428345,237.563675 853.522644,237.574738 853.428772,238.160736 
	C853.763550,238.270218 854.098389,238.379700 854.415039,238.580292 
	C854.415039,238.580292 854.507324,238.569138 854.419434,239.160461 
	C854.757019,239.272339 855.094666,239.384216 855.214844,239.824966 
	C855.214844,239.824966 855.474426,239.528259 855.386108,240.160400 
	C855.900818,240.456940 856.415527,240.753479 856.997620,241.004059 
	C856.997620,241.004059 856.951233,241.071075 857.044250,241.731216 
	C857.740845,242.144089 858.437500,242.556961 859.579712,243.084351 
	C859.864380,243.260101 860.016724,243.514954 859.996765,244.600830 
	C863.097717,251.770264 869.603577,254.841461 876.009766,257.993286 
	C876.009766,257.993286 876.028870,257.923401 876.231812,258.432526 
	C876.551331,258.583588 876.870789,258.734680 877.094727,258.912292 
	C877.094727,258.912292 877.125916,258.818146 877.102661,259.569733 
	C878.448547,260.346008 879.794434,261.122253 881.043091,261.952148 
	C881.043091,261.952148 881.091492,261.852234 881.085693,262.600830 
	C882.186401,263.255066 883.287048,263.909302 884.036499,265.009888 
	C884.150391,264.859131 884.264282,264.708374 884.361572,265.297791 
	C885.966797,266.149841 887.571960,267.001923 889.065063,267.927460 
	C889.065063,267.927460 889.126038,267.808075 889.126892,268.547028 
	C890.123169,269.002594 891.119385,269.458160 892.028015,269.979706 
	C892.028015,269.979706 892.074829,269.880524 892.132202,270.614014 
	C892.899475,270.848175 893.666748,271.082336 894.511292,271.423706 
	C894.511292,271.423706 894.638428,271.459808 894.495483,272.129272 
	C895.077454,272.340973 895.659363,272.552673 896.112122,272.879395 
	C896.112122,272.879395 896.183899,272.722015 896.336914,273.286469 
	C896.690063,273.363068 897.043274,273.439697 897.258057,273.930756 
	C897.258057,273.930756 897.434509,273.531006 897.384705,274.273071 
	C898.376709,274.711182 899.368774,275.149292 899.985596,275.929901 
	C900.105835,275.810486 900.226074,275.691040 900.352722,276.302216 
	C902.237427,277.202698 904.122192,278.103180 906.000000,279.001221 
	C906.000000,279.001221 905.995178,278.996246 906.056274,279.696777 
	C909.434387,283.305481 912.943054,286.676361 918.143616,287.011993 
	C918.236755,286.834930 918.329895,286.657898 918.444641,287.215332 
	C920.002869,287.780853 921.561157,288.346375 923.038696,288.975616 
	C923.038696,288.975616 923.069092,288.877411 923.113953,289.603790 
	C925.329346,290.669586 927.544678,291.735382 929.760071,292.801178 
	C930.502441,290.919769 931.890137,289.039612 931.893738,287.156769 
	C932.011047,226.084976 932.007080,165.012894 931.919067,103.941010 
	C931.917114,102.626671 930.722046,101.314041 929.981934,99.956993 
	C929.981934,99.956993 930.024719,99.854919 930.031006,99.356041 
	C930.000916,99.191948 929.970886,99.027855 929.332153,98.311050 
	C928.682373,98.205498 928.032532,98.007721 927.382751,98.007538 
	C881.849915,97.994392 836.317078,97.990128 790.784302,98.035103 
	C789.542175,98.036324 788.300659,98.582542 786.986328,99.396797 
	C786.999817,99.572014 787.013245,99.747223 787.063416,100.488930 
	C787.023621,100.673912 786.983765,100.858894 786.378418,101.575302 
	C786.265198,102.717567 785.909607,103.896225 786.074890,104.996666 
	C788.782288,123.025543 793.036316,140.664810 799.917175,157.585052 
	C800.957642,160.143570 802.895142,162.337326 804.320923,165.006546 
	C804.320923,165.006546 804.381470,164.690765 804.144348,165.471527 
	C805.686462,169.539062 805.442993,174.542847 810.638367,177.275742 
	C810.800171,177.825958 810.962036,178.376190 810.584717,179.309723 
	C813.148376,184.689621 815.640564,190.106110 818.354980,195.408859 
	C818.749634,196.179962 820.207092,196.407013 821.055908,196.939590 
	C821.055908,196.939590 821.130615,196.834824 821.035645,197.584976 
	C821.748291,198.353882 822.460938,199.122772 823.061890,199.941040 
	C823.061890,199.941040 823.128418,199.838699 823.024475,200.599060 
	C825.343811,205.234848 826.332397,210.861481 832.044678,212.958298 
	C832.044678,212.958298 832.130371,212.839737 832.040833,213.593399 
	C833.268677,217.347519 834.651062,220.968216 839.062866,221.944305 
	C839.062866,221.944305 839.141663,221.823181 839.042603,222.576294 
	C841.094421,224.669037 843.146179,226.761795 845.100037,228.889511 
	C845.100037,228.889511 845.130188,228.790009 845.239075,229.344101 
	C845.547424,229.534317 845.855835,229.724533 846.068298,229.938568 
	C846.068298,229.938568 846.111328,229.849548 846.041748,230.650497 
	C846.870911,231.167206 847.700134,231.683899 848.698914,232.388443 
	C848.698914,232.388443 848.787598,232.625519 848.526367,233.128220 
	C848.832458,233.231934 849.138550,233.335648 849.464905,233.539261 
	C849.464905,233.539261 849.566772,233.541199 849.307373,234.283585 
	C850.023987,234.669266 850.740601,235.054947 851.462036,235.542419 
	C851.462036,235.542419 851.559143,235.573212 851.444336,236.143341 
	C851.770996,236.241364 852.097595,236.339371 852.460205,236.539017 
M80.450279,183.504364 
	C80.835594,183.558670 81.220917,183.612961 82.103958,183.725067 
	C82.402039,183.873184 82.700111,184.021286 83.199265,184.936340 
	C85.068810,185.283325 86.937889,185.930130 88.807968,185.933060 
	C126.255806,185.991608 163.703766,185.975784 201.151688,185.975372 
	C212.469284,185.975250 223.787231,185.925537 235.104294,186.003845 
	C239.216232,186.032288 241.975433,184.725998 241.977875,180.138275 
	C241.991760,154.174393 242.019897,128.210266 241.850098,102.247505 
	C241.843323,101.209381 239.887039,100.184013 238.887192,99.063469 
	C238.887192,99.063469 238.967346,99.125534 238.448730,98.460907 
	C237.314255,98.303780 236.179794,98.009445 235.045303,98.009270 
	C184.347885,98.001144 133.650482,98.018890 82.369171,98.077721 
	C81.907143,98.398514 81.445114,98.719307 80.393867,99.623665 
	C80.259621,100.768921 80.008408,101.914154 80.008286,103.059425 
	C80.005493,129.724991 80.029900,156.390564 80.450279,183.504364 
z"/>
<path fill="#3756A2" opacity="1.000000" stroke="none" 
	d="
M969.007751,351.007477 
	C976.160767,343.885803 978.265503,335.326080 978.231445,325.274872 
	C977.960144,245.299423 978.164795,165.322388 977.928101,85.346703 
	C977.908875,78.847931 976.454712,72.093285 974.324524,65.920944 
	C971.002136,56.294266 962.754333,51.033493 951.971313,51.000557 
	C898.487671,50.837196 845.003174,50.931164 791.518982,50.931309 
	C547.424377,50.931961 303.329773,50.935085 59.235165,50.920094 
	C48.156113,50.919411 39.544590,54.880669 35.158146,65.642731 
	C34.370056,67.576302 33.970509,69.807014 33.967419,71.901382 
	C33.899315,118.054321 33.990284,164.207626 33.848766,210.360229 
	C33.818008,220.391846 43.919312,232.232880 55.897694,232.148270 
	C81.888741,231.964645 107.881943,232.082352 133.874268,232.085571 
	C140.456161,232.086395 141.211761,233.362595 141.048874,240.029877 
	C140.751907,252.185745 141.007751,264.354309 140.886169,276.516144 
	C140.867844,278.349976 140.057175,280.175934 138.767914,282.126160 
	C110.950081,282.164459 83.977348,282.082092 57.004612,281.999725 
	C73.656204,281.899384 90.307709,281.776550 106.959427,281.706879 
	C117.448608,281.662994 127.938118,281.698700 138.770599,281.698700 
	C138.770599,265.867126 138.770599,250.307983 138.770599,234.364746 
	C137.026840,234.287430 135.410355,234.152817 133.793915,234.153534 
	C108.630646,234.164719 83.467323,234.172791 58.304115,234.225327 
	C41.582264,234.260223 31.176489,223.217529 31.254723,206.481476 
	C31.457245,163.156876 31.448551,119.829849 31.218826,76.505409 
	C31.134853,60.668869 41.863567,49.121460 57.725044,49.121906 
	C301.693787,49.128769 545.662476,49.143269 789.631226,49.154732 
	C843.124146,49.157246 896.617004,49.148834 950.109924,49.158360 
	C966.115173,49.161213 974.799377,56.015446 978.092041,71.842888 
	C979.365845,77.966194 980.262512,84.296432 980.274048,90.534355 
	C980.417358,168.024170 980.362732,245.514343 980.375183,323.004425 
	C980.375671,325.999878 980.775757,329.010925 980.580322,331.987854 
	C980.000122,340.826172 976.200195,347.917297 968.426270,352.613251 
	C968.469971,351.945648 968.738831,351.476562 969.007751,351.007477 
z"/>
<path fill="#264894" opacity="1.000000" stroke="none" 
	d="
M41.063721,325.351196 
	C42.042747,325.301422 43.146160,325.559692 44.243099,325.843079 
	C49.626537,327.233765 55.006908,329.844727 60.390759,329.850677 
	C250.875793,330.061096 441.361145,330.053436 631.846252,329.872070 
	C636.408691,329.867737 641.652588,328.580170 645.408691,326.111206 
	C659.663208,316.741364 673.648376,306.922180 687.304138,296.696655 
	C694.735413,291.132111 701.291626,284.400879 708.275146,278.232788 
	C708.869446,277.707886 709.710693,277.462402 710.797729,277.101196 
	C698.790344,287.943359 686.739441,299.165344 673.943237,309.461029 
	C665.413574,316.323853 656.057495,322.268402 646.598022,327.817108 
	C642.352661,330.307312 636.950073,332.053345 632.070984,332.057098 
	C442.574799,332.203278 253.078430,332.091370 63.582088,332.104004 
	C55.381504,332.104553 47.576767,331.569061 41.063721,325.351196 
z"/>
<path fill="#264894" opacity="1.000000" stroke="none" 
	d="
M787.912048,236.453735 
	C789.315308,237.255402 791.147583,238.132660 792.212585,239.576004 
	C803.793213,255.270721 816.951172,269.578003 831.315979,282.678925 
	C848.821289,298.644012 867.981140,312.560974 888.412415,324.529633 
	C900.538330,331.633057 913.377319,337.517578 925.868042,344.003235 
	C926.989197,344.585358 927.907166,345.558655 928.969604,346.699463 
	C914.399353,339.605042 899.422241,332.779480 885.232849,324.589417 
	C855.539307,307.450409 829.101929,286.086670 806.484009,260.231689 
	C799.938904,252.749832 794.130737,244.623215 787.912048,236.453735 
z"/>
<path fill="#264894" opacity="1.000000" stroke="none" 
	d="
M748.442871,230.034988 
	C750.159119,225.365829 752.034119,220.496719 754.272522,215.800842 
	C756.545837,211.031860 759.031677,206.346863 761.733887,201.809296 
	C762.646912,200.275955 764.505188,199.305496 765.931458,198.077759 
	C766.988281,199.384903 768.213318,200.590393 769.074707,202.015640 
	C774.871887,211.607864 780.622314,221.228897 786.302307,230.890854 
	C787.096497,232.241760 787.422424,233.867859 787.919312,235.760498 
	C780.204834,224.193481 772.536194,212.232529 765.055664,200.565033 
	C759.888916,209.870178 754.324951,219.890610 748.442871,230.034988 
z"/>
<path fill="#264894" opacity="1.000000" stroke="none" 
	d="
M50.968246,283.973419 
	C39.970779,288.646088 34.562180,297.153015 35.172604,308.888550 
	C35.383011,312.933685 37.839561,316.871368 39.331993,320.834808 
	C39.783207,322.033112 40.442532,323.153015 40.987488,324.683289 
	C32.814087,318.739014 31.416683,310.005676 33.338696,300.792419 
	C35.237885,291.688568 41.315487,285.752411 50.629673,283.209259 
	C50.989391,283.483002 50.968246,283.973419 50.968246,283.973419 
z"/>
<path fill="#143576" opacity="1.000000" stroke="none" 
	d="
M51.425556,283.982605 
	C50.968246,283.973419 50.989391,283.483002 51.007965,283.238159 
	C52.761047,282.633331 54.495556,282.273346 56.617340,281.956543 
	C83.977348,282.082092 110.950081,282.164459 138.372192,282.280701 
	C137.056870,282.551788 135.292770,282.989990 133.527390,282.995239 
	C115.912827,283.047729 98.297127,282.922058 80.683693,283.072662 
	C71.081497,283.154755 61.483021,283.671265 51.425556,283.982605 
z"/>
<path fill="#264894" opacity="1.000000" stroke="none" 
	d="
M731.437012,254.060852 
	C732.337891,251.698044 733.275024,249.036041 734.850891,246.830444 
	C738.902832,241.159210 743.237854,235.690247 747.811401,230.126801 
	C742.696838,238.065308 737.230530,246.017441 731.437012,254.060852 
z"/>
<path fill="#264894" opacity="1.000000" stroke="none" 
	d="
M968.621643,351.017639 
	C968.738831,351.476562 968.469971,351.945648 968.092773,352.663757 
	C966.800781,353.571320 965.617065,354.229797 963.857361,354.917419 
	C963.281311,354.946533 962.840210,355.083221 962.840210,355.083221 
	C962.626953,355.288696 962.372620,355.401123 961.555908,355.329529 
	C960.691650,355.459076 960.348511,355.679596 960.005371,355.900085 
	C955.894775,355.693268 951.784241,355.486450 947.323730,355.089935 
	C948.214905,354.608185 949.451782,354.085510 950.697632,354.063232 
	C956.709412,353.955627 962.872192,354.852814 968.621643,351.017639 
z"/>
<path fill="#264894" opacity="1.000000" stroke="none" 
	d="
M711.433472,277.047363 
	C711.772095,272.050507 715.814575,269.750885 719.798706,267.107727 
	C717.353699,270.385071 714.551514,273.661652 711.433472,277.047363 
z"/>
<path fill="#264894" opacity="1.000000" stroke="none" 
	d="
M726.453369,260.045776 
	C727.575928,258.158813 729.011108,256.149445 730.800842,254.121857 
	C729.692322,256.043518 728.229187,257.983429 726.453369,260.045776 
z"/>
<path fill="#264894" opacity="1.000000" stroke="none" 
	d="
M721.428101,266.054504 
	C722.560913,264.142792 724.020508,262.142822 725.830200,260.136566 
	C724.705200,262.075592 723.230042,264.020905 721.428101,266.054504 
z"/>
<path fill="#264894" opacity="1.000000" stroke="none" 
	d="
M929.638550,347.501343 
	C930.875793,347.609985 932.340942,348.000214 933.835327,348.796875 
	C932.531860,348.729797 931.199219,348.256348 929.638550,347.501343 
z"/>
<path fill="#264894" opacity="1.000000" stroke="none" 
	d="
M942.202820,353.105652 
	C942.962036,353.077789 943.942749,353.305267 944.934082,353.867493 
	C944.104553,353.921844 943.264404,353.641388 942.202820,353.105652 
z"/>
<path fill="#3756A2" opacity="1.000000" stroke="none" 
	d="
M938.100769,350.702087 
	C938.514221,350.775391 938.927673,350.848694 939.711670,351.189636 
	C940.082153,351.457275 940.313477,351.855255 940.313477,351.855255 
	C940.313477,351.855255 940.248718,352.027863 940.157776,352.016663 
	C939.223572,351.745941 938.380371,351.486450 937.286316,351.001862 
	C937.035522,350.776794 937.047180,350.643829 937.338257,350.694092 
	C937.629333,350.744354 938.100769,350.702057 938.100769,350.702087 
z"/>
<path fill="#264894" opacity="1.000000" stroke="none" 
	d="
M933.995239,349.435455 
	C934.440002,349.304901 935.053894,349.440521 935.815979,349.872131 
	C935.364197,350.012604 934.764343,349.857147 933.995239,349.435455 
z"/>
<path fill="#264894" opacity="1.000000" stroke="none" 
	d="
M720.357117,267.082458 
	C720.273987,266.859436 720.454407,266.556427 720.892944,266.165771 
	C720.974304,266.386261 720.797485,266.694366 720.357117,267.082458 
z"/>
<path fill="#3756A2" opacity="1.000000" stroke="none" 
	d="
M960.319275,355.942993 
	C960.348511,355.679596 960.691650,355.459076 961.350708,355.275757 
	C961.322144,355.537231 960.977661,355.761536 960.319275,355.942993 
z"/>
<path fill="#3756A2" opacity="1.000000" stroke="none" 
	d="
M962.952881,355.171051 
	C962.840210,355.083221 963.281311,354.946533 963.511475,354.929626 
	C963.618469,355.198212 963.393127,355.313599 962.952881,355.171051 
z"/>
<path fill="#FCFDFE" opacity="1.000000" stroke="none" 
	d="
M385.073730,99.785980 
	C385.130981,100.000519 385.188232,100.215057 385.289124,101.168686 
	C385.323212,137.581039 385.309601,173.254288 385.320129,208.927536 
	C385.320496,210.240021 385.555878,211.552429 385.565216,213.219391 
	C386.607239,216.415680 387.765808,219.257492 389.022766,222.422394 
	C396.982239,233.911362 409.656464,237.776703 420.260437,232.242264 
	C420.260437,232.242264 420.126160,232.208160 420.462402,232.252304 
	C421.230438,231.880280 421.662231,231.464111 422.094025,231.047943 
	C422.094025,231.047943 422.021606,231.017197 422.392090,231.027679 
	C428.084991,228.681656 431.341919,224.513092 433.211578,219.127502 
	C433.211578,219.127502 433.114990,219.081619 433.436951,218.863953 
	C434.306152,212.947433 435.293396,207.251114 435.326294,201.549316 
	C435.490112,173.164764 435.416229,144.778763 435.391754,116.393295 
	C435.387329,111.258720 435.223053,106.124283 435.132568,100.989777 
	C435.427307,100.630379 435.722015,100.270981 436.526123,99.656708 
	C471.367828,99.365990 505.700165,99.330154 540.032532,99.294327 
	C540.067810,99.536331 540.187073,99.725426 540.505615,100.388000 
	C540.625061,135.743088 540.626282,170.571793 540.640503,205.400497 
	C540.641418,207.565308 540.614685,209.742523 540.820740,211.892899 
	C542.330811,227.657669 559.108765,238.136063 573.191833,232.149353 
	C573.191833,232.149353 573.089539,232.115799 573.474182,232.178223 
	C575.618042,231.189072 577.377258,230.137512 579.136475,229.085953 
	C579.136475,229.085953 579.047424,229.051147 579.415405,229.057205 
	C581.898193,226.730652 584.013000,224.398026 586.127869,222.065430 
	C586.127869,222.065430 586.041016,222.039948 586.375977,221.965332 
	C587.151550,220.926208 587.592102,219.961700 588.146667,218.791321 
	C588.260620,218.585419 588.264526,218.114746 588.264526,218.114746 
	C588.264526,218.114746 588.136597,218.085419 588.461121,217.937225 
	C589.200562,215.880829 589.615479,213.972641 590.162720,211.934189 
	C590.319763,211.682236 590.386414,211.550568 590.360352,211.440948 
	C590.305969,211.212448 590.202576,210.995590 590.232178,210.331207 
	C590.371765,173.219650 590.398376,136.550842 590.536072,99.793594 
	C590.647156,99.705162 590.770813,99.449539 590.770813,99.449539 
	C590.770813,99.449539 590.941589,99.456268 591.255432,99.444839 
	C591.569275,99.433403 591.972839,99.169685 592.435059,99.266068 
	C630.946777,99.367645 668.996216,99.385811 707.045715,99.368484 
	C716.011780,99.364403 724.977844,99.240685 734.086304,99.345032 
	C734.228699,99.518066 734.641296,99.690247 734.641296,99.690247 
	C734.641296,99.690247 735.084412,99.630638 735.084412,99.630638 
	C735.084412,99.630638 735.033081,99.898987 735.114502,100.383194 
	C734.921753,125.412651 730.489868,149.193756 721.860718,172.162735 
	C715.861816,188.130676 707.206055,202.699768 697.792480,216.845093 
	C697.792480,216.845093 697.941956,216.947174 697.587463,217.032654 
	C689.988770,225.497437 683.327698,234.486588 675.358643,242.107941 
	C664.394409,252.593628 652.440857,262.044708 640.911133,271.939056 
	C640.911133,271.939056 640.985352,271.989838 640.624329,272.013611 
	C635.841553,275.068359 631.419800,278.099365 626.529785,281.188568 
	C625.575867,281.357941 625.090210,281.566040 624.604370,281.566528 
	C587.453552,281.604919 550.302551,281.589020 513.152039,281.707184 
	C509.311005,281.719391 509.386993,279.531342 509.392334,276.869232 
	C509.426239,260.042633 509.455322,243.215805 509.392059,226.389389 
	C509.373993,221.582458 509.044617,216.776672 508.858002,211.970367 
	C508.846619,211.548431 508.835205,211.126511 508.807617,210.045013 
	C507.552856,206.894684 506.314240,204.403915 505.075623,201.913162 
	C505.075623,201.913162 504.998138,201.979996 505.031799,201.662537 
	C504.536133,200.784348 504.006866,200.223618 503.477600,199.662888 
	C503.477600,199.662888 503.393829,199.593918 503.345764,199.350983 
	C503.172363,198.840027 502.961914,198.699493 502.666412,198.686462 
	C502.666412,198.686462 502.546753,198.457809 502.404846,198.256989 
	C502.165436,197.878464 502.016602,197.773773 501.816467,197.742126 
	C501.816467,197.742126 501.626099,197.394394 501.365479,197.140686 
	C500.911743,196.682953 500.679321,196.616318 500.407562,196.687042 
	C500.407562,196.687042 500.334320,196.675461 500.193604,196.332825 
	C488.425049,186.576599 470.586426,189.057587 463.950043,201.011368 
	C463.950043,201.011368 463.725861,201.199127 463.384583,201.525726 
	C461.682220,205.876923 459.206635,209.884567 459.145081,213.928970 
	C458.804718,236.289688 459.052551,258.659363 459.098816,281.025970 
	C459.098816,281.025970 459.016449,281.077759 458.603699,281.307159 
	C456.695343,281.574249 455.199707,281.644775 453.704071,281.644867 
	C371.833557,281.650146 289.963043,281.646484 208.092545,281.655640 
	C202.105179,281.656311 196.117798,281.745514 189.926758,281.316589 
	C189.664276,278.848755 189.575531,276.858246 189.551575,274.866974 
	C189.395996,261.921265 189.254456,248.975372 189.108322,236.029541 
	C189.108322,236.029541 189.353088,235.724548 189.664856,235.299408 
	C191.741425,234.641495 193.506027,234.208221 195.271072,234.206314 
	C218.171707,234.181595 241.073914,234.357971 263.971680,234.109802 
	C268.074371,234.065353 272.158783,232.330505 276.251617,231.376160 
	C276.251617,231.376160 276.156342,231.149551 276.506317,231.260223 
	C277.326782,231.108597 277.797241,230.846313 278.267731,230.584015 
	C278.267731,230.584015 278.399017,230.514908 278.784241,230.393539 
	C285.457275,226.072556 289.468842,220.299957 290.274353,212.758469 
	C290.801239,207.825165 290.661224,202.810532 290.658691,197.832413 
	C290.642151,165.188904 290.581696,132.545395 290.535553,99.901901 
	C290.535553,99.901901 290.803314,99.821266 291.188049,99.768761 
	C292.484436,99.564819 293.396057,99.413383 294.752747,99.330132 
	C324.710846,99.346611 354.223907,99.294899 383.921448,99.411118 
	C384.411102,99.729836 384.733673,99.798813 385.073730,99.785980 
z"/>
<path fill="#FCFDFE" opacity="1.000000" stroke="none" 
	d="
M860.036682,243.848907 
	C860.016724,243.514954 859.864380,243.260101 859.241943,242.748413 
	C858.253235,241.965332 857.602234,241.518204 856.951233,241.071075 
	C856.951233,241.071075 856.997620,241.004059 856.886108,240.760742 
	C856.341248,240.187714 855.907837,239.857986 855.474426,239.528259 
	C855.474426,239.528259 855.214844,239.824966 855.240601,239.444519 
	C855.083923,238.790924 854.830872,238.625946 854.507324,238.569138 
	C854.507324,238.569138 854.415039,238.580292 854.342651,238.321899 
	C854.090210,237.794876 853.841003,237.631943 853.522644,237.574738 
	C853.522644,237.574738 853.428345,237.563675 853.353455,237.309387 
	C853.107666,236.793198 852.868469,236.633957 852.560974,236.577377 
	C852.560974,236.577377 852.460205,236.539017 852.364502,236.286530 
	C852.098022,235.779022 851.861511,235.625412 851.559143,235.573212 
	C851.559143,235.573212 851.462036,235.542419 851.350830,235.237823 
	C850.682068,234.469223 850.124390,234.005203 849.566772,233.541199 
	C849.566772,233.541199 849.464905,233.539261 849.406738,233.311401 
	C849.223145,232.855453 849.036133,232.702789 848.787598,232.625519 
	C848.787598,232.625519 848.698914,232.388443 848.495972,232.035263 
	C847.565735,231.071243 846.838562,230.460403 846.111328,229.849548 
	C846.111328,229.849548 846.068298,229.938568 846.050537,229.657166 
	C845.731934,229.180511 845.431091,228.985260 845.130188,228.790009 
	C845.130188,228.790009 845.100037,228.889511 845.059937,228.548355 
	C843.060486,226.079193 841.101074,223.951202 839.141663,221.823196 
	C839.141663,221.823181 839.062866,221.944305 839.037170,221.574860 
	C836.717773,218.416855 834.424072,215.628311 832.130371,212.839752 
	C832.130371,212.839737 832.044678,212.958298 832.026917,212.582672 
	C829.048950,208.084244 826.088684,203.961456 823.128418,199.838684 
	C823.128418,199.838699 823.061890,199.941040 823.079346,199.598648 
	C822.441406,198.449127 821.786011,197.641983 821.130615,196.834839 
	C821.130615,196.834824 821.055908,196.939590 821.055054,196.561768 
	C817.744080,190.431442 814.433960,184.678925 811.123840,178.926392 
	C810.962036,178.376190 810.800171,177.825958 810.364868,176.743347 
	C808.187988,172.370880 806.284729,168.530823 804.381470,164.690765 
	C804.381470,164.690765 804.320923,165.006546 804.337402,164.473389 
	C802.258728,158.201004 799.702576,152.582779 798.158508,146.698944 
	C794.181274,131.543320 790.652039,116.270111 786.943848,101.043884 
	C786.983765,100.858894 787.023621,100.673912 787.267090,100.092621 
	C787.752380,99.523346 788.033875,99.350388 788.733643,99.278885 
	C828.188904,99.385086 867.226013,99.401314 906.263123,99.384476 
	C913.732727,99.381256 921.202332,99.247787 928.866455,99.342232 
	C929.382202,99.625000 929.703491,99.739952 930.024719,99.854912 
	C930.024719,99.854919 929.981934,99.956993 929.984741,100.443665 
	C929.987549,164.404099 929.987549,227.877853 929.987549,291.829346 
	C927.256714,290.664154 925.162903,289.770782 923.069092,288.877411 
	C923.069092,288.877411 923.038696,288.975616 922.891846,288.659058 
	C921.304321,287.721924 919.863647,287.101410 918.423035,286.480896 
	C918.329895,286.657898 918.236755,286.834930 918.086548,286.479675 
	C914.018005,283.630341 910.006592,281.313293 905.995178,278.996246 
	C905.995178,278.996246 906.000000,279.001221 905.830322,278.714111 
	C903.889282,277.475189 902.117798,276.523407 900.346375,275.571594 
	C900.226074,275.691040 900.105835,275.810486 900.021851,275.492981 
	C899.183594,274.547668 898.309082,274.039337 897.434509,273.531006 
	C897.434509,273.531006 897.258057,273.930756 897.199463,273.496948 
	C896.821899,272.949463 896.502869,272.835724 896.183899,272.722015 
	C896.183899,272.722015 896.112122,272.879395 896.062805,272.578674 
	C895.555115,272.005249 895.096802,271.732544 894.638428,271.459808 
	C894.638428,271.459808 894.511292,271.423706 894.299866,271.144379 
	C893.417236,270.536896 892.746033,270.208710 892.074829,269.880524 
	C892.074829,269.880524 892.028015,269.979706 891.930603,269.663605 
	C890.930786,268.834351 890.028442,268.321198 889.126038,267.808075 
	C889.126038,267.808075 889.065063,267.927460 888.967590,267.595642 
	C887.372803,266.361725 885.875549,265.459656 884.378235,264.557587 
	C884.264282,264.708374 884.150391,264.859131 884.073486,264.507568 
	C883.104187,263.287567 882.097839,262.569916 881.091492,261.852234 
	C881.091492,261.852234 881.043091,261.952148 880.950684,261.632599 
	C879.614197,260.481415 878.370056,259.649780 877.125916,258.818176 
	C877.125916,258.818146 877.094727,258.912292 877.047852,258.640503 
	C876.676880,258.220306 876.352905,258.071869 876.028870,257.923401 
	C876.028870,257.923401 876.009766,257.993286 875.898010,257.670990 
	C870.536377,252.848755 865.286560,248.348831 860.036682,243.848907 
z"/>
<path fill="#FCFDFE" opacity="1.000000" stroke="none" 
	d="
M82.998192,184.169403 
	C82.700111,184.021286 82.402039,183.873184 81.855194,183.530334 
	C81.606430,183.335602 81.362770,183.108032 81.457458,182.640198 
	C81.560585,157.451904 81.539169,132.731339 81.617027,108.011086 
	C81.626259,105.080177 82.178459,102.150986 82.606903,99.289894 
	C82.734848,99.358795 82.969070,99.186714 83.434242,99.265503 
	C132.106659,99.353271 180.313889,99.367363 228.521133,99.360573 
	C232.003220,99.360085 235.485275,99.207443 238.967346,99.125534 
	C238.967346,99.125534 238.887192,99.063469 239.184967,99.389618 
	C239.712738,100.993225 240.141266,102.270340 240.143433,103.548172 
	C240.186462,129.195908 240.186844,154.843704 240.161850,180.491486 
	C240.160797,181.574753 239.832184,182.657715 239.626556,183.923080 
	C237.337738,183.923080 235.352219,183.922928 233.366699,183.923096 
	C188.233200,183.927155 143.099701,183.924011 97.966209,183.945526 
	C92.976837,183.947906 87.987526,184.091370 82.998192,184.169403 
z"/>
<path fill="#224694" opacity="1.000000" stroke="none" 
	d="
M83.098724,184.552856 
	C87.987526,184.091370 92.976837,183.947906 97.966209,183.945526 
	C143.099701,183.924011 188.233200,183.927155 233.366699,183.923096 
	C235.352219,183.922928 237.337738,183.923080 239.626556,183.923080 
	C239.832184,182.657715 240.160797,181.574753 240.161850,180.491486 
	C240.186844,154.843704 240.186462,129.195908 240.143433,103.548172 
	C240.141266,102.270340 239.712738,100.993225 239.160919,99.434235 
	C239.887039,100.184013 241.843323,101.209381 241.850098,102.247505 
	C242.019897,128.210266 241.991760,154.174393 241.977875,180.138275 
	C241.975433,184.725998 239.216232,186.032288 235.104294,186.003845 
	C223.787231,185.925537 212.469284,185.975250 201.151688,185.975372 
	C163.703766,185.975784 126.255806,185.991608 88.807968,185.933060 
	C86.937889,185.930130 85.068810,185.283325 83.098724,184.552856 
z"/>
<path fill="#264589" opacity="1.000000" stroke="none" 
	d="
M923.091553,289.240601 
	C925.162903,289.770782 927.256714,290.664154 929.987549,291.829346 
	C929.987549,227.877853 929.987549,164.404099 930.035583,100.465469 
	C930.722046,101.314041 931.917114,102.626671 931.919067,103.941010 
	C932.007080,165.012894 932.011047,226.084976 931.893738,287.156769 
	C931.890137,289.039612 930.502441,290.919769 929.760071,292.801178 
	C927.544678,291.735382 925.329346,290.669586 923.091553,289.240601 
z"/>
<path fill="#133578" opacity="1.000000" stroke="none" 
	d="
M188.725555,236.080627 
	C189.254456,248.975372 189.395996,261.921265 189.551575,274.866974 
	C189.575531,276.858246 189.664276,278.848755 190.279388,281.486755 
	C193.996750,282.164703 197.157791,282.221619 200.318832,282.222443 
	C286.540100,282.244446 372.761383,282.260742 458.982666,282.277985 
	C457.210968,282.527100 455.439362,282.993439 453.667572,282.994202 
	C367.563538,283.030792 281.459473,283.028351 195.355438,283.026672 
	C186.812622,283.026520 186.483887,281.696655 187.189163,273.298645 
	C188.103180,262.415070 187.543060,251.409409 187.684082,240.457138 
	C187.702667,239.012756 188.113586,237.573395 188.725555,236.080627 
z"/>
<path fill="#113488" opacity="1.000000" stroke="none" 
	d="
M572.715698,232.095169 
	C559.108765,238.136063 542.330811,227.657669 540.820740,211.892899 
	C540.614685,209.742523 540.641418,207.565308 540.640503,205.400497 
	C540.626282,170.571793 540.625061,135.743088 540.666443,100.447311 
	C541.472351,102.734474 542.881287,105.485687 542.894165,108.243401 
	C543.047424,141.141022 543.583130,174.055206 542.714661,206.930603 
	C542.345886,220.888916 554.600525,234.015137 567.759033,232.022156 
	C569.218079,231.801178 570.744385,232.024002 572.715698,232.095169 
z"/>
<path fill="#22428F" opacity="1.000000" stroke="none" 
	d="
M698.153320,216.867188 
	C707.206055,202.699768 715.861816,188.130676 721.860718,172.162735 
	C730.489868,149.193756 734.921753,125.412651 735.249817,100.402260 
	C735.864563,101.486839 736.925598,103.041527 736.910278,104.585518 
	C736.718445,123.871620 734.424255,142.852722 727.480957,160.992844 
	C723.196106,172.187469 719.019348,183.470963 713.854614,194.265060 
	C710.253113,201.791931 705.080994,208.570892 700.536194,215.636230 
	C700.148865,216.238312 699.201416,216.480087 698.153320,216.867188 
z"/>
<path fill="#4C669C" opacity="1.000000" stroke="none" 
	d="
M459.056458,282.001404 
	C372.761383,282.260742 286.540100,282.244446 200.318832,282.222443 
	C197.157791,282.221619 193.996750,282.164703 190.483063,281.963745 
	C196.117798,281.745514 202.105179,281.656311 208.092545,281.655640 
	C289.963043,281.646484 371.833557,281.650146 453.704071,281.644867 
	C455.199707,281.644775 456.695343,281.574249 458.633423,281.345703 
	C459.094025,281.344849 459.112152,281.534851 459.056458,282.001404 
z"/>
<path fill="#4C669C" opacity="1.000000" stroke="none" 
	d="
M290.193604,100.058502 
	C290.581696,132.545395 290.642151,165.188904 290.658691,197.832413 
	C290.661224,202.810532 290.801239,207.825165 290.274353,212.758469 
	C289.468842,220.299957 285.457275,226.072556 278.846710,230.353577 
	C280.888092,227.392822 283.803040,224.621552 285.468018,221.235596 
	C287.289948,217.530487 288.941254,213.264999 288.972412,209.230667 
	C289.238190,174.824738 289.106506,140.415833 289.145599,106.007889 
	C289.147797,104.076691 289.605774,102.146019 290.193604,100.058502 
z"/>
<path fill="#4C669C" opacity="1.000000" stroke="none" 
	d="
M508.602417,212.296509 
	C509.044617,216.776672 509.373993,221.582458 509.392059,226.389389 
	C509.455322,243.215805 509.426239,260.042633 509.392334,276.869232 
	C509.386993,279.531342 509.311005,281.719391 513.152039,281.707184 
	C550.302551,281.589020 587.453552,281.604919 624.604370,281.566528 
	C625.090210,281.566040 625.575867,281.357941 626.348022,281.444275 
	C626.053284,281.875092 625.472168,282.108337 624.431274,282.308838 
	C586.043213,282.299194 548.114807,282.322296 510.186462,282.345428 
	C509.484619,281.200623 508.172882,280.056732 508.171143,278.910889 
	C508.137939,256.814941 508.258179,234.718781 508.602417,212.296509 
z"/>
<path fill="#133484" opacity="1.000000" stroke="none" 
	d="
M434.766418,101.162674 
	C435.223053,106.124283 435.387329,111.258720 435.391754,116.393295 
	C435.416229,144.778763 435.490112,173.164764 435.326294,201.549316 
	C435.293396,207.251114 434.306152,212.947433 433.451050,218.915527 
	C433.098633,181.247543 433.039856,143.310272 433.068481,105.373093 
	C433.069489,104.026917 433.936737,102.681404 434.766418,101.162674 
z"/>
<path fill="#133484" opacity="1.000000" stroke="none" 
	d="
M385.681732,212.864868 
	C385.555878,211.552429 385.320496,210.240021 385.320129,208.927536 
	C385.309601,173.254288 385.323212,137.581039 385.459351,101.454971 
	C386.062347,102.774063 386.949249,104.544830 386.954163,106.318047 
	C387.039520,137.040329 386.966003,167.763062 387.060883,198.485275 
	C387.079254,204.422989 387.663269,210.358932 387.725952,216.511795 
	C386.870941,215.440216 386.276337,214.152542 385.681732,212.864868 
z"/>
<path fill="#22428F" opacity="1.000000" stroke="none" 
	d="
M641.315186,271.968872 
	C652.440857,262.044708 664.394409,252.593628 675.358643,242.107941 
	C683.327698,234.486588 689.988770,225.497437 697.530762,216.962128 
	C695.083252,221.167267 692.707336,225.820663 689.527588,229.837906 
	C677.101624,245.536407 661.579041,258.004608 646.135559,270.515778 
	C645.005005,271.431671 643.206970,271.523621 641.315186,271.968872 
z"/>
<path fill="#0B3183" opacity="1.000000" stroke="none" 
	d="
M238.708038,98.793221 
	C235.485275,99.207443 232.003220,99.360085 228.521133,99.360573 
	C180.313889,99.367363 132.106659,99.353271 83.437973,98.977097 
	C82.968712,98.417786 82.960884,98.225677 82.953064,98.033569 
	C133.650482,98.018890 184.347885,98.001144 235.045303,98.009270 
	C236.179794,98.009445 237.314255,98.303780 238.708038,98.793221 
z"/>
<path fill="#103585" opacity="1.000000" stroke="none" 
	d="
M928.671936,99.174423 
	C921.202332,99.247787 913.732727,99.381256 906.263123,99.384476 
	C867.226013,99.401314 828.188904,99.385086 788.423584,99.185699 
	C787.483154,98.952240 787.270996,98.913437 787.058838,98.874619 
	C788.300659,98.582542 789.542175,98.036324 790.784302,98.035103 
	C836.317078,97.990128 881.849915,97.994392 927.382751,98.007538 
	C928.032532,98.007721 928.682373,98.205498 929.315796,98.650749 
	C929.090332,99.051773 928.881165,99.113098 928.671936,99.174423 
z"/>
<path fill="#0C3183" opacity="1.000000" stroke="none" 
	d="
M733.943909,99.172005 
	C724.977844,99.240685 716.011780,99.364403 707.045715,99.368484 
	C668.996216,99.385811 630.946777,99.367645 592.442871,98.977966 
	C591.984619,98.401413 591.980835,98.209335 591.976990,98.017250 
	C639.014771,98.013519 686.052551,98.009789 733.534973,98.302567 
	C733.967773,98.790054 733.955872,98.981033 733.943909,99.172005 
z"/>
<path fill="#264589" opacity="1.000000" stroke="none" 
	d="
M786.661133,101.309593 
	C790.652039,116.270111 794.181274,131.543320 798.158508,146.698944 
	C799.702576,152.582779 802.258728,158.201004 804.385742,164.320007 
	C802.895142,162.337326 800.957642,160.143570 799.917175,157.585052 
	C793.036316,140.664810 788.782288,123.025543 786.074890,104.996666 
	C785.909607,103.896225 786.265198,102.717567 786.661133,101.309593 
z"/>
<path fill="#0A2A77" opacity="1.000000" stroke="none" 
	d="
M590.424988,99.882027 
	C590.398376,136.550842 590.371765,173.219650 590.158936,210.650543 
	C589.992004,211.629913 590.011169,211.847198 590.030396,212.064468 
	C589.615479,213.972641 589.200562,215.880829 588.470581,218.002167 
	C588.429504,204.097000 588.866028,189.979568 588.941650,175.860199 
	C589.075439,150.872192 588.989807,125.883003 589.364563,100.424774 
	C589.963745,99.930832 590.194336,99.906433 590.424988,99.882027 
z"/>
<path fill="#123475" opacity="1.000000" stroke="none" 
	d="
M510.502808,282.577545 
	C548.114807,282.322296 586.043213,282.299194 624.476440,282.469177 
	C624.981323,282.662292 625.032410,282.993073 625.032410,282.993042 
	C587.784912,283.006134 550.537476,283.020691 513.289978,283.022980 
	C512.466370,283.023041 511.642731,282.883881 510.502808,282.577545 
z"/>
<path fill="#4C669C" opacity="1.000000" stroke="none" 
	d="
M459.378174,280.716370 
	C459.052551,258.659363 458.804718,236.289688 459.145081,213.928970 
	C459.206635,209.884567 461.682220,205.876923 463.345886,201.666718 
	C458.625000,223.114075 460.373230,245.125275 459.981537,267.017426 
	C459.901703,271.481049 459.766968,275.943665 459.378174,280.716370 
z"/>
<path fill="#113488" opacity="1.000000" stroke="none" 
	d="
M539.788696,98.936913 
	C505.700165,99.330154 471.367828,99.365990 436.574829,99.429123 
	C437.222290,98.971588 438.329468,98.065582 439.438599,98.063156 
	C472.184021,97.991432 504.929657,98.006355 537.675232,98.036858 
	C538.298584,98.037437 538.921631,98.390755 539.788696,98.936913 
z"/>
<path fill="#4C669C" opacity="1.000000" stroke="none" 
	d="
M275.841248,231.287766 
	C272.158783,232.330505 268.074371,234.065353 263.971680,234.109802 
	C241.073914,234.357971 218.171707,234.181595 195.271072,234.206314 
	C193.506027,234.208221 191.741425,234.641495 189.638824,235.105621 
	C190.743896,234.579300 192.182724,233.170471 193.630219,233.161514 
	C215.842453,233.024155 238.056808,233.181808 260.268158,232.986496 
	C265.327240,232.942017 270.376862,231.823532 275.841248,231.287766 
z"/>
<path fill="#133484" opacity="1.000000" stroke="none" 
	d="
M383.736938,99.243179 
	C354.223907,99.294899 324.710846,99.346611 294.358154,99.186218 
	C292.684570,98.898079 291.850677,98.822052 291.016785,98.746017 
	C292.116425,98.498199 293.215759,98.035423 294.315735,98.033920 
	C323.674347,97.993736 353.033020,97.999130 382.391663,98.012474 
	C383.042847,98.012772 383.693939,98.195442 384.348145,98.621689 
	C384.146484,99.047958 383.941711,99.145569 383.736938,99.243179 
z"/>
<path fill="#072C7E" opacity="1.000000" stroke="none" 
	d="
M82.478966,99.220993 
	C82.178459,102.150986 81.626259,105.080177 81.617027,108.011086 
	C81.539169,132.731339 81.560585,157.451904 81.129654,182.609467 
	C80.487854,183.049728 80.268570,183.052933 80.049278,183.056137 
	C80.029900,156.390564 80.005493,129.724991 80.008286,103.059425 
	C80.008408,101.914154 80.259621,100.768921 81.061264,99.388016 
	C81.978760,99.175240 82.228867,99.198112 82.478966,99.220993 
z"/>
<path fill="#4C669C" opacity="1.000000" stroke="none" 
	d="
M464.296326,200.971298 
	C470.586426,189.057587 488.425049,186.576599 500.182159,196.297546 
	C499.529541,196.458328 498.639221,196.505127 497.981781,196.136505 
	C485.139648,188.935806 477.364716,189.781235 466.679291,199.570435 
	C466.084259,200.115570 465.325256,200.481750 464.296326,200.971298 
z"/>
<path fill="#133484" opacity="1.000000" stroke="none" 
	d="
M419.812744,232.162109 
	C409.656464,237.776703 396.982239,233.911362 389.036743,222.062866 
	C388.632294,220.221481 388.312317,219.062729 387.992340,217.903976 
	C388.621948,218.355927 389.514923,218.667389 389.842102,219.280685 
	C395.774048,230.400284 403.833740,234.314865 416.387970,232.135864 
	C417.354340,231.968124 418.371521,232.093063 419.812744,232.162109 
z"/>
<path fill="#264589" opacity="1.000000" stroke="none" 
	d="
M810.854248,179.118057 
	C814.433960,184.678925 817.744080,190.431442 821.113464,196.534882 
	C820.207092,196.407013 818.749634,196.179962 818.354980,195.408859 
	C815.640564,190.106110 813.148376,184.689621 810.854248,179.118057 
z"/>
<path fill="#264589" opacity="1.000000" stroke="none" 
	d="
M860.016724,244.224869 
	C865.286560,248.348831 870.536377,252.848755 875.929443,257.652893 
	C869.603577,254.841461 863.097717,251.770264 860.016724,244.224869 
z"/>
<path fill="#22428F" opacity="1.000000" stroke="none" 
	d="
M625.414001,282.991760 
	C625.032410,282.993073 624.981323,282.662292 624.936157,282.501953 
	C625.472168,282.108337 626.053284,281.875092 626.816223,281.386108 
	C631.419800,278.099365 635.841553,275.068359 640.605530,271.972748 
	C639.404785,273.664093 638.130127,275.813538 636.259644,277.089294 
	C632.963318,279.337494 629.303345,281.052307 625.414001,282.991760 
z"/>
<path fill="#133484" opacity="1.000000" stroke="none" 
	d="
M432.855194,219.119080 
	C431.341919,224.513092 428.084991,228.681656 422.401245,231.065933 
	C425.526215,227.099365 429.012512,223.105026 432.855194,219.119080 
z"/>
<path fill="#264589" opacity="1.000000" stroke="none" 
	d="
M823.076416,200.218872 
	C826.088684,203.961456 829.048950,208.084244 832.088501,212.543198 
	C826.332397,210.861481 825.343811,205.234848 823.076416,200.218872 
z"/>
<path fill="#264589" opacity="1.000000" stroke="none" 
	d="
M906.025757,279.346497 
	C910.006592,281.313293 914.018005,283.630341 918.220093,286.212891 
	C912.943054,286.676361 909.434387,283.305481 906.025757,279.346497 
z"/>
<path fill="#264589" opacity="1.000000" stroke="none" 
	d="
M804.262939,165.081146 
	C806.284729,168.530823 808.187988,172.370880 810.125916,176.578156 
	C805.442993,174.542847 805.686462,169.539062 804.262939,165.081146 
z"/>
<path fill="#264589" opacity="1.000000" stroke="none" 
	d="
M832.085571,213.216583 
	C834.424072,215.628311 836.717773,218.416855 839.098389,221.536423 
	C834.651062,220.968216 833.268677,217.347519 832.085571,213.216583 
z"/>
<path fill="#113488" opacity="1.000000" stroke="none" 
	d="
M585.780945,222.081665 
	C584.013000,224.398026 581.898193,226.730652 579.431641,229.102158 
	C581.197937,226.793335 583.315979,224.445618 585.780945,222.081665 
z"/>
<path fill="#264589" opacity="1.000000" stroke="none" 
	d="
M839.092163,222.199753 
	C841.101074,223.951202 843.060486,226.079193 845.108948,228.530869 
	C843.146179,226.761795 841.094421,224.669037 839.092163,222.199753 
z"/>
<path fill="#4C669C" opacity="1.000000" stroke="none" 
	d="
M505.041718,202.300766 
	C506.314240,204.403915 507.552856,206.894684 508.713135,209.741409 
	C507.425842,207.627701 506.216827,205.158035 505.041718,202.300766 
z"/>
<path fill="#4C669C" opacity="1.000000" stroke="none" 
	d="
M387.970459,217.728424 
	C388.312317,219.062729 388.632294,220.221481 388.938293,221.739761 
	C387.765808,219.257492 386.607239,216.415680 385.565216,213.219376 
	C386.276337,214.152542 386.870941,215.440216 387.700073,216.963593 
	C387.934601,217.199310 387.948608,217.552856 387.970459,217.728424 
z"/>
<path fill="#113488" opacity="1.000000" stroke="none" 
	d="
M578.722778,229.053497 
	C577.377258,230.137512 575.618042,231.189072 573.494629,232.228027 
	C573.145081,228.375916 575.989563,229.124039 578.722778,229.053497 
z"/>
<path fill="#264589" opacity="1.000000" stroke="none" 
	d="
M900.349548,275.936890 
	C902.117798,276.523407 903.889282,277.475189 905.833801,278.715332 
	C904.122192,278.103180 902.237427,277.202698 900.349548,275.936890 
z"/>
<path fill="#264589" opacity="1.000000" stroke="none" 
	d="
M884.369873,264.927673 
	C885.875549,265.459656 887.372803,266.361725 889.023682,267.558899 
	C887.571960,267.001923 885.966797,266.149841 884.369873,264.927673 
z"/>
<path fill="#264589" opacity="1.000000" stroke="none" 
	d="
M877.114258,259.193970 
	C878.370056,259.649780 879.614197,260.481415 880.999329,261.605774 
	C879.794434,261.122253 878.448547,260.346008 877.114258,259.193970 
z"/>
<path fill="#264589" opacity="1.000000" stroke="none" 
	d="
M918.433838,286.848114 
	C919.863647,287.101410 921.304321,287.721924 922.932129,288.627197 
	C921.561157,288.346375 920.002869,287.780853 918.433838,286.848114 
z"/>
<path fill="#264589" opacity="1.000000" stroke="none" 
	d="
M881.088623,262.226562 
	C882.097839,262.569916 883.104187,263.287567 884.249146,264.284393 
	C883.287048,263.909302 882.186401,263.255066 881.088623,262.226562 
z"/>
<path fill="#264589" opacity="1.000000" stroke="none" 
	d="
M889.126465,268.177551 
	C890.028442,268.321198 890.930786,268.834351 891.974426,269.630615 
	C891.119385,269.458160 890.123169,269.002594 889.126465,268.177551 
z"/>
<path fill="#264589" opacity="1.000000" stroke="none" 
	d="
M821.083130,197.209900 
	C821.786011,197.641983 822.441406,198.449127 823.135193,199.573959 
	C822.460938,199.122772 821.748291,198.353882 821.083130,197.209900 
z"/>
<path fill="#264589" opacity="1.000000" stroke="none" 
	d="
M846.076538,230.250031 
	C846.838562,230.460403 847.565735,231.071243 848.411133,231.941345 
	C847.700134,231.683899 846.870911,231.167206 846.076538,230.250031 
z"/>
<path fill="#264589" opacity="1.000000" stroke="none" 
	d="
M897.409607,273.902039 
	C898.309082,274.039337 899.183594,274.547668 900.209473,275.321716 
	C899.368774,275.149292 898.376709,274.711182 897.409607,273.902039 
z"/>
<path fill="#113488" opacity="1.000000" stroke="none" 
	d="
M588.032715,218.997192 
	C587.592102,219.961700 587.151550,220.926208 586.393433,222.007080 
	C586.196472,221.225128 586.317017,220.326782 586.968323,219.210144 
	C587.676880,218.993637 587.854736,218.995407 588.032715,218.997192 
z"/>
<path fill="#264589" opacity="1.000000" stroke="none" 
	d="
M849.437073,233.912384 
	C850.124390,234.005203 850.682068,234.469223 851.348450,235.186935 
	C850.740601,235.054947 850.023987,234.669266 849.437073,233.912384 
z"/>
<path fill="#4C669C" opacity="1.000000" stroke="none" 
	d="
M503.393402,199.996002 
	C504.006866,200.223618 504.536133,200.784348 505.078735,201.642334 
	C504.497742,201.402756 503.903473,200.865921 503.393402,199.996002 
z"/>
<path fill="#264589" opacity="1.000000" stroke="none" 
	d="
M892.103516,270.247253 
	C892.746033,270.208710 893.417236,270.536896 894.261230,271.090759 
	C893.666748,271.082336 892.899475,270.848175 892.103516,270.247253 
z"/>
<path fill="#4C669C" opacity="1.000000" stroke="none" 
	d="
M290.945801,98.941864 
	C291.850677,98.822052 292.684570,98.898079 293.913086,99.118027 
	C293.396057,99.413383 292.484436,99.564819 291.229492,99.635223 
	C290.886200,99.554192 290.874817,99.137711 290.945801,98.941864 
z"/>
<path fill="#264589" opacity="1.000000" stroke="none" 
	d="
M856.997742,241.401154 
	C857.602234,241.518204 858.253235,241.965332 859.019165,242.691132 
	C858.437500,242.556961 857.740845,242.144089 856.997742,241.401154 
z"/>
<path fill="#264589" opacity="1.000000" stroke="none" 
	d="
M855.430298,239.844330 
	C855.907837,239.857986 856.341248,240.187714 856.852417,240.783722 
	C856.415527,240.753479 855.900818,240.456940 855.430298,239.844330 
z"/>
<path fill="#22428F" opacity="1.000000" stroke="none" 
	d="
M734.086304,99.345032 
	C733.955872,98.981033 733.967773,98.790054 734.005493,98.313553 
	C734.356445,98.394814 734.681519,98.761597 735.045532,99.379509 
	C735.084412,99.630638 734.641296,99.690247 734.641296,99.690247 
	C734.641296,99.690247 734.228699,99.518066 734.086304,99.345032 
z"/>
<path fill="#224694" opacity="1.000000" stroke="none" 
	d="
M82.606903,99.289894 
	C82.228867,99.198112 81.978760,99.175240 81.355881,99.096237 
	C81.445114,98.719307 81.907143,98.398514 82.661118,98.055649 
	C82.960884,98.225677 82.968712,98.417786 82.972809,98.898300 
	C82.969070,99.186714 82.734848,99.358795 82.606903,99.289894 
z"/>
<path fill="#133484" opacity="1.000000" stroke="none" 
	d="
M421.763184,231.055878 
	C421.662231,231.464111 421.230438,231.880280 420.481934,232.318756 
	C420.587616,231.915314 421.009979,231.489563 421.763184,231.055878 
z"/>
<path fill="#264589" opacity="1.000000" stroke="none" 
	d="
M894.566956,271.794556 
	C895.096802,271.732544 895.555115,272.005249 896.127441,272.521179 
	C895.659363,272.552673 895.077454,272.340973 894.566956,271.794556 
z"/>
<path fill="#4C669C" opacity="1.000000" stroke="none" 
	d="
M277.968719,230.450134 
	C277.797241,230.846313 277.326782,231.108597 276.578430,231.359772 
	C276.756958,231.004501 277.213348,230.660385 277.968719,230.450134 
z"/>
<path fill="#22428F" opacity="1.000000" stroke="none" 
	d="
M591.737732,98.175064 
	C591.980835,98.209335 591.984619,98.401413 591.980652,98.881592 
	C591.972839,99.169685 591.569275,99.433403 591.330688,99.404175 
	C591.227539,99.027588 591.362976,98.680229 591.737732,98.175064 
z"/>
<path fill="#264894" opacity="1.000000" stroke="none" 
	d="
M937.994141,350.591278 
	C938.100769,350.702057 937.629333,350.744354 937.402954,350.677795 
	C937.352356,350.297150 937.589294,350.253571 937.994141,350.591278 
z"/>
<path fill="#264894" opacity="1.000000" stroke="none" 
	d="
M940.444641,351.757263 
	C940.313477,351.855255 940.082153,351.457275 940.023315,351.234772 
	C940.168213,351.227936 940.372009,351.443634 940.444641,351.757263 
z"/>
<path fill="#4C669C" opacity="1.000000" stroke="none" 
	d="
M383.921448,99.411118 
	C383.941711,99.145569 384.146484,99.047958 384.681519,98.867271 
	C385.050385,98.949577 385.088959,99.114967 385.100616,99.533173 
	C384.733673,99.798813 384.411102,99.729836 383.921448,99.411118 
z"/>
<path fill="#22428F" opacity="1.000000" stroke="none" 
	d="
M590.536072,99.793594 
	C590.194336,99.906433 589.963745,99.930832 589.385864,99.953491 
	C589.400024,99.731316 589.761414,99.510872 590.446777,99.369980 
	C590.770813,99.449539 590.647156,99.705162 590.536072,99.793594 
z"/>
<path fill="#264589" opacity="1.000000" stroke="none" 
	d="
M787.022583,99.135712 
	C787.270996,98.913437 787.483154,98.952240 788.005371,99.084236 
	C788.033875,99.350388 787.752380,99.523346 787.248779,99.809364 
	C787.013245,99.747223 786.999817,99.572014 787.022583,99.135712 
z"/>
<path fill="#264589" opacity="1.000000" stroke="none" 
	d="
M896.260376,273.004242 
	C896.502869,272.835724 896.821899,272.949463 897.268677,273.289734 
	C897.043274,273.439697 896.690063,273.363068 896.260376,273.004242 
z"/>
<path fill="#264589" opacity="1.000000" stroke="none" 
	d="
M928.866455,99.342239 
	C928.881165,99.113098 929.090332,99.051773 929.620117,98.927109 
	C929.970886,99.027855 930.000916,99.191948 930.027832,99.605469 
	C929.703491,99.739952 929.382202,99.625000 928.866455,99.342239 
z"/>
<path fill="#224694" opacity="1.000000" stroke="none" 
	d="
M80.249779,183.280243 
	C80.268570,183.052933 80.487854,183.049728 81.034958,183.077286 
	C81.362770,183.108032 81.606430,183.335602 81.606331,183.501434 
	C81.220917,183.612961 80.835594,183.558670 80.249779,183.280243 
z"/>
<path fill="#0A2A77" opacity="1.000000" stroke="none" 
	d="
M588.146606,218.791306 
	C587.854736,218.995407 587.676880,218.993637 587.231873,218.987411 
	C587.216431,218.726105 587.468140,218.469254 587.992188,218.163574 
	C588.264526,218.114746 588.260620,218.585419 588.146606,218.791306 
z"/>
<path fill="#264589" opacity="1.000000" stroke="none" 
	d="
M876.130371,258.177979 
	C876.352905,258.071869 876.676880,258.220306 877.095581,258.627258 
	C876.870789,258.734680 876.551331,258.583588 876.130371,258.177979 
z"/>
<path fill="#4C669C" opacity="1.000000" stroke="none" 
	d="
M500.415649,196.929321 
	C500.679321,196.616318 500.911743,196.682953 501.185242,197.058136 
	C501.265656,197.229309 500.828461,197.433975 500.828461,197.433975 
	C500.828461,197.433975 500.423706,197.171585 500.415649,196.929321 
z"/>
<path fill="#264589" opacity="1.000000" stroke="none" 
	d="
M854.463379,238.864807 
	C854.830872,238.625946 855.083923,238.790924 855.349365,239.280090 
	C855.094666,239.384216 854.757019,239.272339 854.463379,238.864807 
z"/>
<path fill="#264589" opacity="1.000000" stroke="none" 
	d="
M853.475708,237.867737 
	C853.841003,237.631943 854.090210,237.794876 854.351685,238.276352 
	C854.098389,238.379700 853.763550,238.270218 853.475708,237.867737 
z"/>
<path fill="#264589" opacity="1.000000" stroke="none" 
	d="
M852.503906,236.863571 
	C852.868469,236.633957 853.107666,236.793198 853.354065,237.261948 
	C853.101990,237.362442 852.774353,237.256104 852.503906,236.863571 
z"/>
<path fill="#264589" opacity="1.000000" stroke="none" 
	d="
M851.501709,235.858276 
	C851.861511,235.625412 852.098022,235.779022 852.346558,236.235703 
	C852.097595,236.339371 851.770996,236.241364 851.501709,235.858276 
z"/>
<path fill="#4C669C" opacity="1.000000" stroke="none" 
	d="
M501.702515,197.940903 
	C502.016602,197.773773 502.165436,197.878464 502.292664,198.193176 
	C502.322418,198.330185 501.890778,198.481689 501.890778,198.481689 
	C501.890778,198.481689 501.588593,198.139679 501.702515,197.940903 
z"/>
<path fill="#264589" opacity="1.000000" stroke="none" 
	d="
M848.656982,232.876862 
	C849.036133,232.702789 849.223145,232.855453 849.396606,233.261459 
	C849.138550,233.335648 848.832458,233.231934 848.656982,232.876862 
z"/>
<path fill="#4C669C" opacity="1.000000" stroke="none" 
	d="
M502.592834,198.924835 
	C502.961914,198.699493 503.172363,198.840027 503.316437,199.305359 
	C503.335175,199.502655 502.838623,199.545090 502.838623,199.545090 
	C502.838623,199.545090 502.519257,199.163223 502.592834,198.924835 
z"/>
<path fill="#264589" opacity="1.000000" stroke="none" 
	d="
M845.184631,229.067047 
	C845.431091,228.985260 845.731934,229.180511 846.098511,229.645264 
	C845.855835,229.724533 845.547424,229.534317 845.184631,229.067047 
z"/>
<path fill="#22428F" opacity="1.000000" stroke="none" 
	d="
M590.162720,211.934189 
	C590.011169,211.847198 589.992004,211.629913 590.046021,211.093292 
	C590.202576,210.995590 590.305969,211.212448 590.360352,211.440948 
	C590.386414,211.550568 590.319763,211.682236 590.162720,211.934189 
z"/>
</svg>