<svg width="120" height="120" viewBox="0 0 120 120" fill="none" xmlns="http://www.w3.org/2000/svg">
<path d="M27 96C29.3058 93.4175 40.1052 81.5334 43.27 81.5334H76.732C81.318 81.5334 90.6799 91.3845 93 94.857M108 60C108 86.5097 86.5097 108 60 108C33.4903 108 12 86.5097 12 60C12 33.4903 33.4903 12 60 12C86.5097 12 108 33.4903 108 60ZM77.1942 43.6398C77.1942 34.4822 69.4635 27 60.0014 27C50.5396 27 42.8087 34.4822 42.8087 43.6398C42.8087 52.7973 50.5396 60.2796 60.0014 60.2796C69.4633 60.2796 77.1942 52.7973 77.1942 43.6398Z" stroke="black" stroke-width="2"/>
</svg>
